<svg width="256" height="256" viewBox="0 0 256 256" fill="none" xmlns="http://www.w3.org/2000/svg">
  <defs>
    <linearGradient id="g" x1="40" y1="40" x2="216" y2="216" gradientUnits="userSpaceOnUse">
      <stop stop-color="#8B5CF6"/>
      <stop offset="1" stop-color="#3B82F6"/>
    </linearGradient>
    <filter id="s" x="-20%" y="-20%" width="140%" height="140%">
      <feDropShadow dx="0" dy="10" stdDeviation="12" flood-color="#000" flood-opacity="0.25"/>
    </filter>
  </defs>

  <rect x="28" y="28" width="200" height="200" rx="56" fill="url(#g)" filter="url(#s)"/>
  <path d="M86 164V92h64c18 0 30 9 30 24 0 10-6 18-16 21v1c12 2 19 11 19 23 0 16-12 26-32 26H86zm26-44h32c9 0 14-4 14-10 0-6-5-10-14-10h-32v20zm0 22h36c10 0 15-4 15-11 0-7-5-11-15-11h-36v22z"
        fill="white" opacity="0.95"/>
  <circle cx="170" cy="128" r="22" fill="white" opacity="0.22"/>
</svg>
